<svg width="80" height="80" viewBox="0 0 80 80" fill="none" xmlns="http://www.w3.org/2000/svg">
<path d="M4 54V67H17" stroke="black" stroke-width="6"/>
<path d="M63 67H76V54" stroke="black" stroke-width="6"/>
<path d="M76 27V14L63 14" stroke="black" stroke-width="6"/>
<path d="M17 14H4V27" stroke="black" stroke-width="6"/>
<path d="M12.1992 40.8477C12.1992 38.8555 12.6992 37.293 13.6992 36.1602C14.6992 35.0273 16.2344 34.4609 18.3047 34.4609C19.5156 34.4609 20.457 34.6211 21.1289 34.9414C21.8008 35.2617 22.3398 35.7305 22.7461 36.3477C22.9883 36.7148 22.9492 37.0039 22.6289 37.2148L21.3867 38.0352C21.0352 38.2695 20.7266 38.1797 20.4609 37.7656C20.3281 37.5625 20.0742 37.3438 19.6992 37.1094C19.3242 36.875 18.8594 36.7578 18.3047 36.7578C17.4219 36.7578 16.7617 37.0703 16.3242 37.6953C15.8867 38.3125 15.668 39.3633 15.668 40.8477C15.668 42.332 15.8867 43.3867 16.3242 44.0117C16.7617 44.6289 17.4219 44.9375 18.3047 44.9375C18.9375 44.9375 19.4492 44.8047 19.8398 44.5391C20.2305 44.2734 20.5977 43.9297 20.9414 43.5078C21.2383 43.1484 21.5508 43.0977 21.8789 43.3555L22.9688 44.2109C23.2969 44.4688 23.3164 44.8125 23.0273 45.2422C22.7227 45.6953 22.2031 46.1406 21.4688 46.5781C20.7422 47.0156 19.6875 47.2344 18.3047 47.2344C16.2344 47.2344 14.6992 46.668 13.6992 45.5352C12.6992 44.4023 12.1992 42.8398 12.1992 40.8477ZM26.2852 47C25.8164 47 25.582 46.7656 25.582 46.2969V30.4062C25.582 29.9375 25.8164 29.7031 26.2852 29.7031H28.1602C28.6289 29.7031 28.8633 29.9375 28.8633 30.4062V35.1406C28.8633 35.4531 28.8477 35.7656 28.8164 36.0781H28.8867C29.2461 35.4609 29.7031 35.0391 30.2578 34.8125C30.8125 34.5781 31.4805 34.4609 32.2617 34.4609C33.4805 34.4609 34.4883 34.8438 35.2852 35.6094C36.082 36.375 36.4805 37.7734 36.4805 39.8047V46.2969C36.4805 46.7656 36.2461 47 35.7773 47H33.9023C33.4336 47 33.1992 46.7656 33.1992 46.2969V40.6484C33.1992 38.9453 33.082 37.8711 32.8477 37.4258C32.6133 36.9805 32.1094 36.7578 31.3359 36.7578C30.5156 36.7578 29.8984 37.0781 29.4844 37.7188C29.0703 38.3516 28.8633 39.6719 28.8633 41.6797V46.2969C28.8633 46.7656 28.6289 47 28.1602 47H26.2852ZM38.9883 40.8477C38.9883 38.8555 39.5 37.293 40.5234 36.1602C41.5547 35.0273 43.0859 34.4609 45.1172 34.4609C47.1484 34.4609 48.6758 35.0273 49.6992 36.1602C50.7305 37.293 51.2461 38.8555 51.2461 40.8477C51.2461 42.8398 50.7305 44.4023 49.6992 45.5352C48.6758 46.668 47.1484 47.2344 45.1172 47.2344C43.0859 47.2344 41.5547 46.668 40.5234 45.5352C39.5 44.4023 38.9883 42.8398 38.9883 40.8477ZM42.457 40.8477C42.457 42.332 42.6836 43.3867 43.1367 44.0117C43.5977 44.6289 44.2578 44.9375 45.1172 44.9375C45.9766 44.9375 46.6328 44.6289 47.0859 44.0117C47.5469 43.3867 47.7773 42.332 47.7773 40.8477C47.7773 39.3633 47.5469 38.3125 47.0859 37.6953C46.6328 37.0703 45.9766 36.7578 45.1172 36.7578C44.2578 36.7578 43.5977 37.0703 43.1367 37.6953C42.6836 38.3125 42.457 39.3633 42.457 40.8477ZM53.1211 40.8477C53.1211 38.8555 53.6211 37.293 54.6211 36.1602C55.6211 35.0273 57.1562 34.4609 59.2266 34.4609C60.4375 34.4609 61.3789 34.6211 62.0508 34.9414C62.7227 35.2617 63.2617 35.7305 63.668 36.3477C63.9102 36.7148 63.8711 37.0039 63.5508 37.2148L62.3086 38.0352C61.957 38.2695 61.6484 38.1797 61.3828 37.7656C61.25 37.5625 60.9961 37.3438 60.6211 37.1094C60.2461 36.875 59.7812 36.7578 59.2266 36.7578C58.3438 36.7578 57.6836 37.0703 57.2461 37.6953C56.8086 38.3125 56.5898 39.3633 56.5898 40.8477C56.5898 42.332 56.8086 43.3867 57.2461 44.0117C57.6836 44.6289 58.3438 44.9375 59.2266 44.9375C59.8594 44.9375 60.3711 44.8047 60.7617 44.5391C61.1523 44.2734 61.5195 43.9297 61.8633 43.5078C62.1602 43.1484 62.4727 43.0977 62.8008 43.3555L63.8906 44.2109C64.2188 44.4688 64.2383 44.8125 63.9492 45.2422C63.6445 45.6953 63.125 46.1406 62.3906 46.5781C61.6641 47.0156 60.6094 47.2344 59.2266 47.2344C57.1562 47.2344 55.6211 46.668 54.6211 45.5352C53.6211 44.4023 53.1211 42.8398 53.1211 40.8477ZM67.9336 47C67.3867 47 67.1133 46.707 67.1133 46.1211V44.5508C67.1133 43.9648 67.3867 43.6719 67.9336 43.6719H69.7148C70.2617 43.6719 70.5352 43.9648 70.5352 44.5508V46.1211C70.5352 46.707 70.2617 47 69.7148 47H67.9336Z" fill="black"/>
</svg>
